<svg width="118" height="30" viewBox="0 0 118 30" fill="none" xmlns="http://www.w3.org/2000/svg">
<g filter="url(#filter0_b)">
<path d="M10.38 11.5L8.43 11.38V15.52C8.43 16.06 8.51 16.45 8.67 16.69C8.85 16.93 9.17 17.05 9.63 17.05C10.11 17.05 10.47 17.07 10.71 17.11C10.97 17.13 11.24 17.22 11.52 17.38C11.98 17.64 12.21 18.31 12.21 19.39C12.21 20.65 11.93 21.42 11.37 21.7C11.07 21.84 10.8 21.93 10.56 21.97C10.34 21.99 10.01 22 9.57 22C7.49 22 5.91 21.53 4.83 20.59C3.75 19.65 3.21 18.06 3.21 15.82V11.38C2.83 11.44 2.42 11.47 1.98 11.47C1.54 11.47 1.17 11.3 0.87 10.96C0.59 10.62 0.45 10.04 0.45 9.22C0.45 8.4 0.5 7.81 0.6 7.45C0.7 7.07 0.84 6.8 1.02 6.64C1.34 6.38 1.74 6.25 2.22 6.25L3.21 6.37V3.28C3.21 2.82 3.22 2.48 3.24 2.26C3.28 2.04 3.38 1.8 3.54 1.54C3.8 1.04 4.57 0.789999 5.85 0.789999C7.21 0.789999 8.02 1.16 8.28 1.9C8.38 2.22 8.43 2.73 8.43 3.43V6.37C9.31 6.29 9.97 6.25 10.41 6.25C10.87 6.25 11.21 6.27 11.43 6.31C11.67 6.33 11.94 6.42 12.24 6.58C12.76 6.84 13.02 7.61 13.02 8.89C13.02 10.15 12.75 10.92 12.21 11.2C11.91 11.34 11.64 11.43 11.4 11.47C11.18 11.49 10.84 11.5 10.38 11.5ZM21.6966 21.94C19.6766 21.94 17.9966 21.18 16.6566 19.66C15.3366 18.12 14.6766 16.25 14.6766 14.05V8.8C14.6766 8.32 14.6866 7.97 14.7066 7.75C14.7466 7.53 14.8366 7.27 14.9766 6.97C15.2566 6.43 16.0366 6.16 17.3166 6.16C18.7166 6.16 19.5366 6.54 19.7766 7.3C19.8966 7.62 19.9566 8.13 19.9566 8.83V14.08C19.9566 14.9 20.1866 15.54 20.6466 16C21.1266 16.46 21.7566 16.69 22.5366 16.69C23.3366 16.69 23.9766 16.45 24.4566 15.97C24.9566 15.49 25.2066 14.86 25.2066 14.08V8.77C25.2066 8.31 25.2166 7.97 25.2366 7.75C25.2766 7.51 25.3766 7.24 25.5366 6.94C25.7966 6.42 26.5666 6.16 27.8466 6.16C29.1066 6.16 29.8766 6.43 30.1566 6.97C30.2966 7.27 30.3766 7.54 30.3966 7.78C30.4366 8 30.4566 8.34 30.4566 8.8V19.42C30.4566 19.86 30.4366 20.2 30.3966 20.44C30.3766 20.66 30.2866 20.91 30.1266 21.19C29.8266 21.71 29.0566 21.97 27.8166 21.97C26.5966 21.97 25.8466 21.73 25.5666 21.25C25.3666 20.91 25.2666 20.5 25.2666 20.02C25.1866 20.16 25.0066 20.36 24.7266 20.62C24.4466 20.88 24.1766 21.1 23.9166 21.28C23.2366 21.72 22.4966 21.94 21.6966 21.94ZM43.6099 6.37C43.9899 6.49 44.2999 6.7 44.5399 7C44.7999 7.28 44.9299 7.74 44.9299 8.38C44.9299 9.02 44.7399 9.72 44.3599 10.48C43.9799 11.24 43.4299 11.62 42.7099 11.62C42.3499 11.62 41.9999 11.54 41.6599 11.38C41.3399 11.22 40.9099 11.14 40.3699 11.14C39.8299 11.14 39.3199 11.33 38.8399 11.71C38.3799 12.09 38.1499 12.55 38.1499 13.09V19.39C38.1499 19.85 38.1299 20.2 38.0899 20.44C38.0699 20.66 37.9799 20.92 37.8199 21.22C37.5199 21.74 36.7399 22 35.4799 22C34.5199 22 33.8299 21.83 33.4099 21.49C33.0899 21.21 32.9099 20.78 32.8699 20.2C32.8699 20 32.8699 19.71 32.8699 19.33V8.8C32.8699 8.34 32.8799 8 32.8999 7.78C32.9399 7.54 33.0299 7.28 33.1699 7C33.4499 6.46 34.2299 6.19 35.5099 6.19C36.7099 6.19 37.4599 6.42 37.7599 6.88C37.9799 7.2 38.0899 7.53 38.0899 7.87C38.1899 7.73 38.3299 7.56 38.5099 7.36C38.7099 7.16 39.1199 6.89 39.7399 6.55C40.3599 6.21 40.8999 6.04 41.3599 6.04C41.8399 6.04 42.2399 6.07 42.5599 6.13C42.8799 6.17 43.2299 6.25 43.6099 6.37Z" fill="#7AB54B"/>
<path d="M55.7609 11.5L53.8109 11.38V15.52C53.8109 16.06 53.8909 16.45 54.0509 16.69C54.2309 16.93 54.5509 17.05 55.0109 17.05C55.4909 17.05 55.8509 17.07 56.0909 17.11C56.3509 17.13 56.6209 17.22 56.9009 17.38C57.3609 17.64 57.5909 18.31 57.5909 19.39C57.5909 20.65 57.3109 21.42 56.7509 21.7C56.4509 21.84 56.1809 21.93 55.9409 21.97C55.7209 21.99 55.3909 22 54.9509 22C52.8709 22 51.2909 21.53 50.2109 20.59C49.1309 19.65 48.5909 18.06 48.5909 15.82V11.38C48.2109 11.44 47.8009 11.47 47.3609 11.47C46.9209 11.47 46.5509 11.3 46.2509 10.96C45.9709 10.62 45.8309 10.04 45.8309 9.22C45.8309 8.4 45.8809 7.81 45.9809 7.45C46.0809 7.07 46.2209 6.8 46.4009 6.64C46.7209 6.38 47.1209 6.25 47.6009 6.25L48.5909 6.37V3.28C48.5909 2.82 48.6009 2.48 48.6209 2.26C48.6609 2.04 48.7609 1.8 48.9209 1.54C49.1809 1.04 49.9509 0.789999 51.2309 0.789999C52.5909 0.789999 53.4009 1.16 53.6609 1.9C53.7609 2.22 53.8109 2.73 53.8109 3.43V6.37C54.6909 6.29 55.3509 6.25 55.7909 6.25C56.2509 6.25 56.5909 6.27 56.8109 6.31C57.0509 6.33 57.3209 6.42 57.6209 6.58C58.1409 6.84 58.4009 7.61 58.4009 8.89C58.4009 10.15 58.1309 10.92 57.5909 11.2C57.2909 11.34 57.0209 11.43 56.7809 11.47C56.5609 11.49 56.2209 11.5 55.7609 11.5ZM74.318 6.37C75.498 6.89 76.088 7.52 76.088 8.26C76.088 8.62 76.008 8.96 75.848 9.28C75.688 9.6 75.608 9.77 75.608 9.79L67.748 27.37C67.588 27.75 67.448 28.04 67.328 28.24C67.228 28.44 67.058 28.63 66.818 28.81C66.578 28.99 66.278 29.08 65.918 29.08C65.558 29.08 65.028 28.93 64.328 28.63C63.148 28.11 62.558 27.49 62.558 26.77C62.558 26.29 63.518 24 65.438 19.9L59.468 9.85C59.068 9.19 58.868 8.7 58.868 8.38C58.868 7.74 59.408 7.1 60.488 6.46C61.168 6.06 61.698 5.86 62.078 5.86C62.458 5.86 62.768 5.94 63.008 6.1C63.248 6.26 63.418 6.43 63.518 6.61C63.638 6.77 64.188 7.7 65.168 9.4C66.168 11.08 67.118 12.65 68.018 14.11C68.118 13.79 68.658 12.56 69.638 10.42C70.618 8.26 71.138 7.11 71.198 6.97C71.278 6.83 71.398 6.66 71.558 6.46C71.818 6.12 72.178 5.95 72.638 5.95C73.118 5.95 73.678 6.09 74.318 6.37ZM77.7234 26.29V8.77C77.7234 8.31 77.7334 7.97 77.7534 7.75C77.7934 7.53 77.8834 7.28 78.0234 7C78.3034 6.46 78.9734 6.19 80.0334 6.19C81.0934 6.19 81.8034 6.33 82.1634 6.61C82.5434 6.87 82.7634 7.26 82.8234 7.78C83.5834 6.74 84.7734 6.22 86.3934 6.22C88.0334 6.22 89.5834 6.99 91.0434 8.53C92.5034 10.07 93.2334 11.86 93.2334 13.9C93.2334 15.94 92.5034 17.73 91.0434 19.27C89.6034 20.81 88.0634 21.58 86.4234 21.58C84.7834 21.58 83.5934 21.12 82.8534 20.2V26.26C82.8534 26.72 82.8334 27.06 82.7934 27.28C82.7734 27.5 82.6834 27.75 82.5234 28.03C82.3834 28.33 82.1334 28.54 81.7734 28.66C81.4134 28.78 80.9234 28.84 80.3034 28.84C79.6834 28.84 79.1834 28.78 78.8034 28.66C78.4434 28.54 78.1834 28.34 78.0234 28.06C77.8834 27.78 77.7934 27.53 77.7534 27.31C77.7334 27.09 77.7234 26.75 77.7234 26.29ZM83.6634 12.16C83.2034 12.7 82.9734 13.29 82.9734 13.93C82.9734 14.57 83.2034 15.16 83.6634 15.7C84.1434 16.22 84.7434 16.48 85.4634 16.48C86.2034 16.48 86.8234 16.22 87.3234 15.7C87.8434 15.18 88.1034 14.59 88.1034 13.93C88.1034 13.27 87.8634 12.68 87.3834 12.16C86.9034 11.62 86.2734 11.35 85.4934 11.35C84.7334 11.35 84.1234 11.62 83.6634 12.16ZM110.424 12.22C110.424 13.44 110.114 14.35 109.494 14.95C108.894 15.53 108.224 15.82 107.484 15.82H100.374C100.374 16.38 100.704 16.85 101.364 17.23C102.024 17.61 102.684 17.8 103.344 17.8C104.504 17.8 105.414 17.68 106.074 17.44L106.404 17.32C106.884 17.1 107.284 16.99 107.604 16.99C108.244 16.99 108.794 17.44 109.254 18.34C109.514 18.88 109.644 19.34 109.644 19.72C109.644 21.5 107.514 22.39 103.254 22.39C101.774 22.39 100.454 22.14 99.2944 21.64C98.1544 21.12 97.2644 20.44 96.6244 19.6C95.3644 17.98 94.7344 16.17 94.7344 14.17C94.7344 11.65 95.5444 9.64 97.1644 8.14C98.8044 6.62 100.844 5.86 103.284 5.86C106.064 5.86 108.104 6.84 109.404 8.8C110.084 9.84 110.424 10.98 110.424 12.22ZM104.094 13.09C104.854 13.09 105.234 12.77 105.234 12.13C105.234 11.67 105.054 11.3 104.694 11.02C104.354 10.74 103.854 10.6 103.194 10.6C102.554 10.6 101.914 10.87 101.274 11.41C100.634 11.93 100.314 12.49 100.314 13.09H104.094ZM117.032 17.05C117.372 17.39 117.542 18.09 117.542 19.15V19.27C117.542 19.75 117.522 20.11 117.482 20.35C117.462 20.57 117.362 20.84 117.182 21.16C116.882 21.74 116.122 22.03 114.902 22.03C113.702 22.03 112.902 21.84 112.502 21.46C112.122 21.08 111.932 20.36 111.932 19.3V19.18C111.932 18.72 111.942 18.37 111.962 18.13C112.002 17.89 112.102 17.62 112.262 17.32C112.562 16.72 113.312 16.42 114.512 16.42C115.732 16.42 116.572 16.63 117.032 17.05Z" fill="#FF9C06"/>
</g>
<defs>
<filter id="filter0_b" x="-3.55005" y="-3.20999" width="125.092" height="36.29" filterUnits="userSpaceOnUse" color-interpolation-filters="sRGB">
<feFlood flood-opacity="0" result="BackgroundImageFix"/>
<feGaussianBlur in="BackgroundImage" stdDeviation="2"/>
<feComposite in2="SourceAlpha" operator="in" result="effect1_backgroundBlur"/>
<feBlend mode="normal" in="SourceGraphic" in2="effect1_backgroundBlur" result="shape"/>
</filter>
</defs>
</svg>
